<svg width="256" height="256" viewBox="0 0 256 256" fill="none" xmlns="http://www.w3.org/2000/svg">
<g clip-path="url(#clip0_2546_4520)">
<circle cx="128" cy="128" r="128" fill="#2563EB"/>
<path d="M204 79.6718C204 81.9377 203.21 84.2318 201.525 86.1104C173.334 117.569 147.238 152.914 129.545 193.665C126.469 200.749 119.487 205.279 111.789 205.224C107.474 205.194 104.801 205.415 100.511 205.885C92.9516 206.713 85.6322 203.001 81.816 196.398C73.0705 181.269 60.9532 167.142 49.0172 154.396C42.4331 147.366 44.1757 136.002 52.5369 131.241C52.6346 131.186 52.7306 131.131 52.8283 131.076C57.3534 128.526 62.8593 128.541 67.3827 131.096C79.5637 137.975 91.9929 149.634 103.707 162.524C125.821 128.161 155.879 93.0159 189.21 71.5195C191.822 69.834 195.09 69.5364 197.971 70.6984C201.835 72.2561 204 75.9232 204 79.6718Z" fill="#FAFAFA"/>
<path d="M250 48C250 60.1503 239.703 70 227 70C214.297 70 204 60.1503 204 48C204 35.8497 214.297 26 227 26C239.703 26 250 35.8497 250 48Z" fill="#2563EB"/>
<path d="M249.444 47.5C249.444 34.8281 239.172 24.5556 226.5 24.5556C213.828 24.5556 203.556 34.8281 203.556 47.5C203.556 60.1719 213.828 70.4444 226.5 70.4444C239.172 70.4444 249.444 60.1719 249.444 47.5ZM256 47.5C256 63.7924 242.792 77 226.5 77C210.208 77 197 63.7924 197 47.5C197 31.2076 210.208 18 226.5 18C242.792 18 256 31.2076 256 47.5Z" fill="white"/>
</g>
<defs>
<clipPath id="clip0_2546_4520">
<rect width="256" height="256" fill="white"/>
</clipPath>
</defs>
</svg>
