<svg width="130" height="48" viewBox="0 0 130 48" fill="none" xmlns="http://www.w3.org/2000/svg">
<g clip-path="url(#clip0_2546_4542)">
<circle cx="24" cy="24" r="24" fill="#2563EB"/>
<path d="M38.25 14.9385C38.25 15.3633 38.1019 15.7935 37.786 16.1457C32.5001 22.0443 27.6071 28.6713 24.2896 36.3122C23.7129 37.6404 22.4039 38.4898 20.9603 38.4795C20.1513 38.4739 19.6502 38.5153 18.8459 38.6035C17.4284 38.7588 16.056 38.0627 15.3405 36.8246C13.7007 33.9879 11.4287 31.3391 9.19073 28.9493C7.95621 27.6311 8.28294 25.5003 9.85067 24.6077C9.86899 24.5973 9.887 24.5871 9.90531 24.5768C10.7538 24.0986 11.7861 24.1015 12.6343 24.5805C14.9182 25.8703 17.2487 28.0563 19.445 30.4732C23.5914 24.0301 29.2273 17.4405 35.4769 13.4099C35.9666 13.0939 36.5794 13.0381 37.1195 13.256C37.8441 13.548 38.25 14.2356 38.25 14.9385Z" fill="#FAFAFA"/>
<path d="M46.875 9C46.875 11.2782 44.9442 13.125 42.5625 13.125C40.1808 13.125 38.25 11.2782 38.25 9C38.25 6.72183 40.1808 4.875 42.5625 4.875C44.9442 4.875 46.875 6.72183 46.875 9Z" fill="#2563EB"/>
<path d="M46.7708 8.90625C46.7708 6.53027 44.8447 4.60417 42.4687 4.60417C40.0928 4.60417 38.1667 6.53027 38.1667 8.90625C38.1667 11.2822 40.0928 13.2083 42.4687 13.2083C44.8447 13.2083 46.7708 11.2822 46.7708 8.90625ZM48 8.90625C48 11.9611 45.5236 14.4375 42.4687 14.4375C39.4139 14.4375 36.9375 11.9611 36.9375 8.90625C36.9375 5.85142 39.4139 3.375 42.4687 3.375C45.5236 3.375 48 5.85142 48 8.90625Z" fill="white"/>
</g>
<g clip-path="url(#clip1_2546_4542)">
<path d="M119.715 44C117.826 44 116.094 43.5105 114.52 42.5314C112.98 41.516 111.738 40.1925 110.794 38.5607C109.849 36.8926 109.377 35.0614 109.377 33.0669L109.43 15.8243C109.43 13.8298 109.884 12.0167 110.794 10.3849C111.738 8.75314 112.998 7.4477 114.572 6.46862C116.146 5.48954 117.861 5 119.715 5C121.604 5 123.318 5.48954 124.857 6.46862C126.397 7.4477 127.621 8.75314 128.531 10.3849C129.475 12.0167 129.948 13.8298 129.948 15.8243L130 33.0669C130 35.0614 129.528 36.8926 128.583 38.5607C127.674 40.1925 126.432 41.516 124.857 42.5314C123.318 43.5105 121.604 44 119.715 44ZM119.715 37.4184C120.764 37.4184 121.674 36.9833 122.444 36.113C123.248 35.2064 123.65 34.1911 123.65 33.0669L123.598 15.8243C123.598 14.6276 123.231 13.6123 122.496 12.7782C121.761 11.9442 120.834 11.5272 119.715 11.5272C118.63 11.5272 117.703 11.9442 116.934 12.7782C116.164 13.576 115.779 14.5914 115.779 15.8243V33.0669C115.779 34.2636 116.164 35.2971 116.934 36.1674C117.703 37.0014 118.63 37.4184 119.715 37.4184Z" fill="#2563EB"/>
<path d="M90.1718 42.7812C90.0354 42.7812 89.9672 42.6908 89.9672 42.5098L90.0183 5.27142C90.0183 5.09047 90.1036 5 90.2741 5H95.9524C96.1229 5 96.2081 5.09047 96.2081 5.27142L96.157 36.1044H106.695C106.866 36.1044 106.951 36.1949 106.951 36.3758V42.5098C106.951 42.6908 106.866 42.7812 106.695 42.7812H90.1718Z" fill="#2563EB"/>
<path d="M79.2978 42.7812C79.1321 42.7812 79.0492 42.6908 79.0492 42.5098L79.0989 5.21713C79.0989 5.07238 79.1652 5 79.2978 5H84.8662C84.9988 5 85.065 5.07238 85.065 5.21713L85.1148 42.5098C85.1148 42.6908 85.0485 42.7812 84.9159 42.7812H79.2978Z" fill="#2563EB"/>
<path d="M56.2558 42.7812C56.0853 42.7812 56 42.6908 56 42.5098L56.1023 5.21713C56.1023 5.07238 56.1705 5 56.3069 5H72.6767C72.8472 5 72.9325 5.07238 72.9325 5.21713V11.3512C72.9325 11.4959 72.8642 11.5683 72.7278 11.5683H62.241V19.9822H72.7278C72.8642 19.9822 72.9325 20.0727 72.9325 20.2536L72.9836 26.3877C72.9836 26.5324 72.8983 26.6048 72.7278 26.6048H62.241V42.5098C62.241 42.6908 62.1557 42.7812 61.9852 42.7812H56.2558Z" fill="#2563EB"/>
</g>
<defs>
<clipPath id="clip0_2546_4542">
<rect width="48" height="48" fill="white"/>
</clipPath>
<clipPath id="clip1_2546_4542">
<rect width="74" height="39" fill="white" transform="translate(56 5)"/>
</clipPath>
</defs>
</svg>
